# xmcd
#
# Track frame offsets: 
#        150
#        21579
#        36668
#        57468
#        93251
#        107716
#        127591
#        145368
#        167989
#        182813
#        203098
#        222630
#
# Disc length: 3240 seconds
#
# Revision: 0
# Processed by: cddbd v1.5.2PL0 Copyright (c) Steve Scherf et al.
# Submitted via: ExactAudioCopyFreeDBPlugin 1.0
#
DISCID=b90ca60c
DTITLE=Keith Thompson Band - Snapshot Of Reality
DYEAR=2012
DGENRE=Blues
TTITLE0=Showdown
TTITLE1=Getting Ready For The Burn
TTITLE2=All My Friends Are Gone
TTITLE3=Stormy Monday
TTITLE4=Promised Land
TTITLE5=Giving Up The Day Job
TTITLE6=Road To Recovery
TTITLE7=Reputation
TTITLE8=Who Says A Whiteman Can't Get The Blues?
TTITLE9=Power Of Love
TTITLE10=Take Me To The River
TTITLE11=Tore Down
EXTD=
EXTT0=
EXTT1=
EXTT2=
EXTT3=
EXTT4=
EXTT5=
EXTT6=
EXTT7=
EXTT8=
EXTT9=
EXTT10=
EXTT11=
PLAYORDER=
